<svg width="165" height="54" viewBox="0 0 165 54" fill="none" xmlns="http://www.w3.org/2000/svg">
<circle cx="27" cy="27" r="27" fill="white"/>
<path d="M29.584 36.1392C28.352 36.1392 27.248 35.9392 26.272 35.5392C25.296 35.1392 24.512 34.5472 23.92 33.7632C23.344 32.9792 23.04 32.0352 23.008 30.9312H27.376C27.44 31.5552 27.656 32.0352 28.024 32.3712C28.392 32.6912 28.872 32.8512 29.464 32.8512C30.072 32.8512 30.552 32.7152 30.904 32.4432C31.256 32.1552 31.432 31.7632 31.432 31.2672C31.432 30.8512 31.288 30.5072 31 30.2352C30.728 29.9632 30.384 29.7392 29.968 29.5632C29.568 29.3872 28.992 29.1872 28.24 28.9632C27.152 28.6272 26.264 28.2912 25.576 27.9552C24.888 27.6192 24.296 27.1232 23.8 26.4672C23.304 25.8112 23.056 24.9552 23.056 23.8992C23.056 22.3312 23.624 21.1072 24.76 20.2272C25.896 19.3312 27.376 18.8832 29.2 18.8832C31.056 18.8832 32.552 19.3312 33.688 20.2272C34.824 21.1072 35.432 22.3392 35.512 23.9232H31.072C31.04 23.3792 30.84 22.9552 30.472 22.6512C30.104 22.3312 29.632 22.1712 29.056 22.1712C28.56 22.1712 28.16 22.3072 27.856 22.5792C27.552 22.8352 27.4 23.2112 27.4 23.7072C27.4 24.2512 27.656 24.6752 28.168 24.9792C28.68 25.2832 29.48 25.6112 30.568 25.9632C31.656 26.3312 32.536 26.6832 33.208 27.0192C33.896 27.3552 34.488 27.8432 34.984 28.4832C35.48 29.1232 35.728 29.9472 35.728 30.9552C35.728 31.9152 35.48 32.7872 34.984 33.5712C34.504 34.3552 33.8 34.9792 32.872 35.4432C31.944 35.9072 30.848 36.1392 29.584 36.1392Z" fill="#0F6E8C"/>
<path d="M70.952 36.154C69.8227 36.154 68.8107 35.9707 67.916 35.604C67.0213 35.2373 66.3027 34.6947 65.76 33.976C65.232 33.2573 64.9533 32.392 64.924 31.38H68.928C68.9867 31.952 69.1847 32.392 69.522 32.7C69.8593 32.9933 70.2993 33.14 70.842 33.14C71.3993 33.14 71.8393 33.0153 72.162 32.766C72.4847 32.502 72.646 32.1427 72.646 31.688C72.646 31.3067 72.514 30.9913 72.25 30.742C72.0007 30.4927 71.6853 30.2873 71.304 30.126C70.9373 29.9647 70.4093 29.7813 69.72 29.576C68.7227 29.268 67.9087 28.96 67.278 28.652C66.6473 28.344 66.1047 27.8893 65.65 27.288C65.1953 26.6867 64.968 25.902 64.968 24.934C64.968 23.4967 65.4887 22.3747 66.53 21.568C67.5713 20.7467 68.928 20.336 70.6 20.336C72.3013 20.336 73.6727 20.7467 74.714 21.568C75.7553 22.3747 76.3127 23.504 76.386 24.956H72.316C72.2867 24.4573 72.1033 24.0687 71.766 23.79C71.4287 23.4967 70.996 23.35 70.468 23.35C70.0133 23.35 69.6467 23.4747 69.368 23.724C69.0893 23.9587 68.95 24.3033 68.95 24.758C68.95 25.2567 69.1847 25.6453 69.654 25.924C70.1233 26.2027 70.8567 26.5033 71.854 26.826C72.8513 27.1633 73.658 27.486 74.274 27.794C74.9047 28.102 75.4473 28.5493 75.902 29.136C76.3567 29.7227 76.584 30.478 76.584 31.402C76.584 32.282 76.3567 33.0813 75.902 33.8C75.462 34.5187 74.8167 35.0907 73.966 35.516C73.1153 35.9413 72.1107 36.154 70.952 36.154ZM98.0212 23.724L94.6992 36H90.5412L88.6052 28.036L86.6032 36H82.4672L79.1232 23.724H82.8852L84.6232 32.502L86.6912 23.724H90.6732L92.7632 32.458L94.4792 23.724H98.0212ZM102.848 22.448C102.188 22.448 101.645 22.2573 101.22 21.876C100.809 21.48 100.604 20.996 100.604 20.424C100.604 19.8373 100.809 19.3533 101.22 18.972C101.645 18.576 102.188 18.378 102.848 18.378C103.493 18.378 104.021 18.576 104.432 18.972C104.857 19.3533 105.07 19.8373 105.07 20.424C105.07 20.996 104.857 21.48 104.432 21.876C104.021 22.2573 103.493 22.448 102.848 22.448ZM104.718 23.724V36H100.956V23.724H104.718ZM115.104 26.848H113.08V36H109.318V26.848H107.954V23.724H109.318V23.372C109.318 21.8613 109.751 20.7173 110.616 19.94C111.481 19.148 112.75 18.752 114.422 18.752C114.701 18.752 114.906 18.7593 115.038 18.774V21.964C114.319 21.92 113.813 22.0227 113.52 22.272C113.227 22.5213 113.08 22.9687 113.08 23.614V23.724H115.104V26.848ZM125.214 32.81V36H123.3C121.936 36 120.872 35.67 120.11 35.01C119.347 34.3353 118.966 33.2427 118.966 31.732V26.848H117.47V23.724H118.966V20.732H122.728V23.724H125.192V26.848H122.728V31.776C122.728 32.1427 122.816 32.4067 122.992 32.568C123.168 32.7293 123.461 32.81 123.872 32.81H125.214ZM138.863 20.556V23.57H132.571V26.826H137.279V29.752H132.571V36H128.809V20.556H138.863ZM144.233 22.448C143.573 22.448 143.03 22.2573 142.605 21.876C142.194 21.48 141.989 20.996 141.989 20.424C141.989 19.8373 142.194 19.3533 142.605 18.972C143.03 18.576 143.573 18.378 144.233 18.378C144.878 18.378 145.406 18.576 145.817 18.972C146.242 19.3533 146.455 19.8373 146.455 20.424C146.455 20.996 146.242 21.48 145.817 21.876C145.406 22.2573 144.878 22.448 144.233 22.448ZM146.103 23.724V36H142.341V23.724H146.103ZM157.589 36L155.235 32.59L153.255 36H149.185L153.233 29.73L149.075 23.724H153.299L155.653 27.112L157.633 23.724H161.703L157.589 29.906L161.813 36H157.589Z" fill="#F9F8F9"/>
</svg>
